# xmcd CD database file
#
# Track frame offsets:
#	150
#	17836
#	36330
#	51783
#	68668
#	84717
#	101449
#	118766
#	137782
#	154726
#	170427
#	188381
#	205440
#
# Disc length: 2949 seconds
#
# Revision: 4
# Processed by: cddbd v1.5.1PL0 Copyright (c) Steve Scherf et al.
# Submitted via: CDex 1.51
#
DISCID=ae0b830d
DTITLE=Avril Lavigne - Let Go
DYEAR=2002
DGENRE=Rock
TTITLE0=Losing Grip
TTITLE1=Complicated
TTITLE2=Sk8er Boi
TTITLE3=I'm With You
TTITLE4=Mobile
TTITLE5=Unwanted
TTITLE6=Tomorrow
TTITLE7=Anything, But Ordinary
TTITLE8=Things I'll Never Say
TTITLE9=My World
TTITLE10=Nobody's Fool
TTITLE11=Too Much To Ask
TTITLE12=Naked
EXTD=YEAR: 2002
EXTT0=
EXTT1=
EXTT2=
EXTT3=
EXTT4=
EXTT5=
EXTT6=
EXTT7=
EXTT8=
EXTT9=
EXTT10=
EXTT11=
EXTT12=
PLAYORDER=
